%TF.GenerationSoftware,KiCad,Pcbnew,9.0.0*%
%TF.CreationDate,2025-03-15T15:19:18-03:00*%
%TF.ProjectId,can,63616e2e-6b69-4636-9164-5f7063625858,rev?*%
%TF.SameCoordinates,Original*%
%TF.FileFunction,Soldermask,Bot*%
%TF.FilePolarity,Negative*%
%FSLAX46Y46*%
G04 Gerber Fmt 4.6, Leading zero omitted, Abs format (unit mm)*
G04 Created by KiCad (PCBNEW 9.0.0) date 2025-03-15 15:19:18*
%MOMM*%
%LPD*%
G01*
G04 APERTURE LIST*
G04 Aperture macros list*
%AMRoundRect*
0 Rectangle with rounded corners*
0 $1 Rounding radius*
0 $2 $3 $4 $5 $6 $7 $8 $9 X,Y pos of 4 corners*
0 Add a 4 corners polygon primitive as box body*
4,1,4,$2,$3,$4,$5,$6,$7,$8,$9,$2,$3,0*
0 Add four circle primitives for the rounded corners*
1,1,$1+$1,$2,$3*
1,1,$1+$1,$4,$5*
1,1,$1+$1,$6,$7*
1,1,$1+$1,$8,$9*
0 Add four rect primitives between the rounded corners*
20,1,$1+$1,$2,$3,$4,$5,0*
20,1,$1+$1,$4,$5,$6,$7,0*
20,1,$1+$1,$6,$7,$8,$9,0*
20,1,$1+$1,$8,$9,$2,$3,0*%
G04 Aperture macros list end*
%ADD10O,1.700000X1.950000*%
%ADD11RoundRect,0.250000X-0.600000X-0.725000X0.600000X-0.725000X0.600000X0.725000X-0.600000X0.725000X0*%
%ADD12RoundRect,0.250000X0.600000X0.725000X-0.600000X0.725000X-0.600000X-0.725000X0.600000X-0.725000X0*%
%ADD13O,1.700000X1.700000*%
%ADD14R,1.700000X1.700000*%
%ADD15C,3.000000*%
%ADD16C,1.400000*%
%ADD17O,1.400000X1.400000*%
%ADD18C,2.000000*%
%ADD19R,1.350000X1.350000*%
%ADD20O,1.350000X1.350000*%
%ADD21RoundRect,0.250000X-0.725000X0.600000X-0.725000X-0.600000X0.725000X-0.600000X0.725000X0.600000X0*%
%ADD22O,1.950000X1.700000*%
%ADD23R,1.800000X1.800000*%
%ADD24C,1.800000*%
%ADD25R,1.600000X1.600000*%
%ADD26O,1.600000X1.600000*%
G04 APERTURE END LIST*
D10*
%TO.C,J1*%
X137250000Y-52475000D03*
X134750000Y-52475000D03*
X132250000Y-52475000D03*
D11*
X129750000Y-52475000D03*
%TD*%
D10*
%TO.C,J6*%
X150250000Y-103025000D03*
X152750000Y-103025000D03*
X155250000Y-103025000D03*
D12*
X157750000Y-103025000D03*
%TD*%
D13*
%TO.C,J9*%
X124000000Y-97040000D03*
X124000000Y-94500000D03*
X124000000Y-91960000D03*
X124000000Y-89420000D03*
X124000000Y-86880000D03*
X124000000Y-84340000D03*
D14*
X124000000Y-81800000D03*
%TD*%
D15*
%TO.C,REF\u002A\u002A*%
X180500000Y-103000000D03*
%TD*%
%TO.C,REF\u002A\u002A*%
X121500000Y-103000000D03*
%TD*%
%TO.C,REF\u002A\u002A*%
X121500000Y-51000000D03*
%TD*%
%TO.C,REF\u002A\u002A*%
X180500000Y-51000000D03*
%TD*%
D16*
%TO.C,R1*%
X120000000Y-80880000D03*
D17*
X120000000Y-88500000D03*
%TD*%
D18*
%TO.C,M1*%
X152875000Y-60615000D03*
X155415000Y-60615000D03*
X157955000Y-60615000D03*
X160495000Y-60615000D03*
X163035000Y-60615000D03*
X165575000Y-60615000D03*
X168115000Y-60615000D03*
X159860000Y-89190000D03*
X162400000Y-89190000D03*
X172560000Y-88555000D03*
X172560000Y-91095000D03*
%TD*%
D19*
%TO.C,J8*%
X177500000Y-96500000D03*
D20*
X177500000Y-94500000D03*
%TD*%
D11*
%TO.C,CAN*%
X167000000Y-52475000D03*
D10*
X169500000Y-52475000D03*
X172000000Y-52475000D03*
%TD*%
D12*
%TO.C,J5*%
X172000000Y-103000000D03*
D10*
X169500000Y-103000000D03*
X167000000Y-103000000D03*
X164500000Y-103000000D03*
%TD*%
D21*
%TO.C,J4*%
X179500000Y-81000000D03*
D22*
X179500000Y-83500000D03*
X179500000Y-86000000D03*
X179500000Y-88500000D03*
%TD*%
D21*
%TO.C,J3*%
X179500000Y-61000000D03*
D22*
X179500000Y-63500000D03*
X179500000Y-66000000D03*
X179500000Y-68500000D03*
%TD*%
D11*
%TO.C,J2*%
X148500000Y-52500000D03*
D10*
X151000000Y-52500000D03*
X153500000Y-52500000D03*
X156000000Y-52500000D03*
%TD*%
D23*
%TO.C,D2*%
X120725000Y-60000000D03*
D24*
X123265000Y-60000000D03*
%TD*%
D23*
%TO.C,D1*%
X120725000Y-69500000D03*
D24*
X123265000Y-69500000D03*
%TD*%
D25*
%TO.C,A1*%
X128390000Y-61950000D03*
D26*
X128390000Y-64490000D03*
X128390000Y-67030000D03*
X128390000Y-69570000D03*
X128390000Y-72110000D03*
X128390000Y-74650000D03*
X128390000Y-77190000D03*
X128390000Y-79730000D03*
X128390000Y-82270000D03*
X128390000Y-84810000D03*
X128390000Y-87350000D03*
X128390000Y-89890000D03*
X128390000Y-92430000D03*
X128390000Y-94970000D03*
X128390000Y-97510000D03*
X143630000Y-97510000D03*
X143630000Y-94970000D03*
X143630000Y-92430000D03*
X143630000Y-89890000D03*
X143630000Y-87350000D03*
X143630000Y-84810000D03*
X143630000Y-82270000D03*
X143630000Y-79730000D03*
X143630000Y-77190000D03*
X143630000Y-74650000D03*
X143630000Y-72110000D03*
X143630000Y-69570000D03*
X143630000Y-67030000D03*
X143630000Y-64490000D03*
X143630000Y-61950000D03*
%TD*%
M02*
