%TF.GenerationSoftware,KiCad,Pcbnew,9.0.0*%
%TF.CreationDate,2025-03-15T15:19:18-03:00*%
%TF.ProjectId,can,63616e2e-6b69-4636-9164-5f7063625858,rev?*%
%TF.SameCoordinates,Original*%
%TF.FileFunction,Copper,L1,Top*%
%TF.FilePolarity,Positive*%
%FSLAX46Y46*%
G04 Gerber Fmt 4.6, Leading zero omitted, Abs format (unit mm)*
G04 Created by KiCad (PCBNEW 9.0.0) date 2025-03-15 15:19:18*
%MOMM*%
%LPD*%
G01*
G04 APERTURE LIST*
G04 Aperture macros list*
%AMRoundRect*
0 Rectangle with rounded corners*
0 $1 Rounding radius*
0 $2 $3 $4 $5 $6 $7 $8 $9 X,Y pos of 4 corners*
0 Add a 4 corners polygon primitive as box body*
4,1,4,$2,$3,$4,$5,$6,$7,$8,$9,$2,$3,0*
0 Add four circle primitives for the rounded corners*
1,1,$1+$1,$2,$3*
1,1,$1+$1,$4,$5*
1,1,$1+$1,$6,$7*
1,1,$1+$1,$8,$9*
0 Add four rect primitives between the rounded corners*
20,1,$1+$1,$2,$3,$4,$5,0*
20,1,$1+$1,$4,$5,$6,$7,0*
20,1,$1+$1,$6,$7,$8,$9,0*
20,1,$1+$1,$8,$9,$2,$3,0*%
G04 Aperture macros list end*
%TA.AperFunction,ComponentPad*%
%ADD10O,1.700000X1.950000*%
%TD*%
%TA.AperFunction,ComponentPad*%
%ADD11RoundRect,0.250000X-0.600000X-0.725000X0.600000X-0.725000X0.600000X0.725000X-0.600000X0.725000X0*%
%TD*%
%TA.AperFunction,ComponentPad*%
%ADD12RoundRect,0.250000X0.600000X0.725000X-0.600000X0.725000X-0.600000X-0.725000X0.600000X-0.725000X0*%
%TD*%
%TA.AperFunction,ComponentPad*%
%ADD13O,1.700000X1.700000*%
%TD*%
%TA.AperFunction,ComponentPad*%
%ADD14R,1.700000X1.700000*%
%TD*%
%TA.AperFunction,ComponentPad*%
%ADD15C,1.400000*%
%TD*%
%TA.AperFunction,ComponentPad*%
%ADD16O,1.400000X1.400000*%
%TD*%
%TA.AperFunction,ComponentPad*%
%ADD17C,2.000000*%
%TD*%
%TA.AperFunction,ComponentPad*%
%ADD18R,1.350000X1.350000*%
%TD*%
%TA.AperFunction,ComponentPad*%
%ADD19O,1.350000X1.350000*%
%TD*%
%TA.AperFunction,ComponentPad*%
%ADD20RoundRect,0.250000X-0.725000X0.600000X-0.725000X-0.600000X0.725000X-0.600000X0.725000X0.600000X0*%
%TD*%
%TA.AperFunction,ComponentPad*%
%ADD21O,1.950000X1.700000*%
%TD*%
%TA.AperFunction,ComponentPad*%
%ADD22R,1.800000X1.800000*%
%TD*%
%TA.AperFunction,ComponentPad*%
%ADD23C,1.800000*%
%TD*%
%TA.AperFunction,ComponentPad*%
%ADD24R,1.600000X1.600000*%
%TD*%
%TA.AperFunction,ComponentPad*%
%ADD25O,1.600000X1.600000*%
%TD*%
%TA.AperFunction,Conductor*%
%ADD26C,0.200000*%
%TD*%
G04 APERTURE END LIST*
D10*
%TO.P,J1,4,Pin_4*%
%TO.N,Net-(J1-Pin_4)*%
X137250000Y-52475000D03*
%TO.P,J1,3,Pin_3*%
%TO.N,Net-(J1-Pin_3)*%
X134750000Y-52475000D03*
%TO.P,J1,2,Pin_2*%
%TO.N,GND*%
X132250000Y-52475000D03*
D11*
%TO.P,J1,1,Pin_1*%
%TO.N,12V*%
X129750000Y-52475000D03*
%TD*%
D10*
%TO.P,J6,4,Pin_4*%
%TO.N,Net-(A1-A5)*%
X150250000Y-103025000D03*
%TO.P,J6,3,Pin_3*%
%TO.N,Net-(A1-A4)*%
X152750000Y-103025000D03*
%TO.P,J6,2,Pin_2*%
%TO.N,GND*%
X155250000Y-103025000D03*
D12*
%TO.P,J6,1,Pin_1*%
%TO.N,3.3V*%
X157750000Y-103025000D03*
%TD*%
D13*
%TO.P,J9,7,Pin_7*%
%TO.N,3.3V*%
X124000000Y-97040000D03*
%TO.P,J9,6,Pin_6*%
%TO.N,GND*%
X124000000Y-94500000D03*
%TO.P,J9,5,Pin_5*%
%TO.N,12V*%
X124000000Y-91960000D03*
%TO.P,J9,4,Pin_4*%
%TO.N,A0*%
X124000000Y-89420000D03*
%TO.P,J9,3,Pin_3*%
%TO.N,A1*%
X124000000Y-86880000D03*
%TO.P,J9,2,Pin_2*%
%TO.N,D6*%
X124000000Y-84340000D03*
D14*
%TO.P,J9,1,Pin_1*%
%TO.N,D9*%
X124000000Y-81800000D03*
%TD*%
D15*
%TO.P,R1,1*%
%TO.N,Net-(D1-K)*%
X120000000Y-80880000D03*
D16*
%TO.P,R1,2*%
%TO.N,GND*%
X120000000Y-88500000D03*
%TD*%
D17*
%TO.P,M1,1,int*%
%TO.N,Net-(A1-D2)*%
X152875000Y-60615000D03*
%TO.P,M1,2,sck*%
%TO.N,Net-(A1-D13)*%
X155415000Y-60615000D03*
%TO.P,M1,3,si*%
%TO.N,Net-(A1-D11)*%
X157955000Y-60615000D03*
%TO.P,M1,4,so*%
%TO.N,Net-(A1-D12)*%
X160495000Y-60615000D03*
%TO.P,M1,5,cs*%
%TO.N,Net-(A1-D10)*%
X163035000Y-60615000D03*
%TO.P,M1,6,gnd*%
%TO.N,GND*%
X165575000Y-60615000D03*
%TO.P,M1,7,vcc*%
%TO.N,3.3V*%
X168115000Y-60615000D03*
%TO.P,M1,8,can_L*%
%TO.N,Net-(J1-Pin_4)*%
X159860000Y-89190000D03*
%TO.P,M1,9,can_H*%
%TO.N,Net-(J1-Pin_3)*%
X162400000Y-89190000D03*
%TO.P,M1,10,R1*%
%TO.N,Net-(J8-Pin_2)*%
X172560000Y-88555000D03*
%TO.P,M1,11,R2*%
%TO.N,Net-(J8-Pin_1)*%
X172560000Y-91095000D03*
%TD*%
D18*
%TO.P,J8,1,Pin_1*%
%TO.N,Net-(J8-Pin_1)*%
X177500000Y-96500000D03*
D19*
%TO.P,J8,2,Pin_2*%
%TO.N,Net-(J8-Pin_2)*%
X177500000Y-94500000D03*
%TD*%
D11*
%TO.P,CAN,1,Pin_1*%
%TO.N,12V*%
X167000000Y-52475000D03*
D10*
%TO.P,CAN,2,Pin_2*%
%TO.N,GND*%
X169500000Y-52475000D03*
%TO.P,CAN,3,Pin_3*%
%TO.N,Net-(A1-D3)*%
X172000000Y-52475000D03*
%TD*%
D12*
%TO.P,J5,1,Pin_1*%
%TO.N,3.3V*%
X172000000Y-103000000D03*
D10*
%TO.P,J5,2,Pin_2*%
%TO.N,GND*%
X169500000Y-103000000D03*
%TO.P,J5,3,Pin_3*%
%TO.N,Net-(A1-A4)*%
X167000000Y-103000000D03*
%TO.P,J5,4,Pin_4*%
%TO.N,Net-(A1-A5)*%
X164500000Y-103000000D03*
%TD*%
D20*
%TO.P,J4,1,Pin_1*%
%TO.N,3.3V*%
X179500000Y-81000000D03*
D21*
%TO.P,J4,2,Pin_2*%
%TO.N,GND*%
X179500000Y-83500000D03*
%TO.P,J4,3,Pin_3*%
%TO.N,Net-(A1-A4)*%
X179500000Y-86000000D03*
%TO.P,J4,4,Pin_4*%
%TO.N,Net-(A1-A5)*%
X179500000Y-88500000D03*
%TD*%
D20*
%TO.P,J3,1,Pin_1*%
%TO.N,3.3V*%
X179500000Y-61000000D03*
D21*
%TO.P,J3,2,Pin_2*%
%TO.N,GND*%
X179500000Y-63500000D03*
%TO.P,J3,3,Pin_3*%
%TO.N,Net-(A1-A4)*%
X179500000Y-66000000D03*
%TO.P,J3,4,Pin_4*%
%TO.N,Net-(A1-A5)*%
X179500000Y-68500000D03*
%TD*%
D11*
%TO.P,J2,1,Pin_1*%
%TO.N,12V*%
X148500000Y-52500000D03*
D10*
%TO.P,J2,2,Pin_2*%
%TO.N,GND*%
X151000000Y-52500000D03*
%TO.P,J2,3,Pin_3*%
%TO.N,Net-(J1-Pin_3)*%
X153500000Y-52500000D03*
%TO.P,J2,4,Pin_4*%
%TO.N,Net-(J1-Pin_4)*%
X156000000Y-52500000D03*
%TD*%
D22*
%TO.P,D2,1,K*%
%TO.N,Net-(D1-K)*%
X120725000Y-60000000D03*
D23*
%TO.P,D2,2,A*%
%TO.N,Net-(A1-D4)*%
X123265000Y-60000000D03*
%TD*%
D22*
%TO.P,D1,1,K*%
%TO.N,Net-(D1-K)*%
X120725000Y-69500000D03*
D23*
%TO.P,D1,2,A*%
%TO.N,Net-(A1-D5)*%
X123265000Y-69500000D03*
%TD*%
D24*
%TO.P,A1,1,D1/TX*%
%TO.N,unconnected-(A1-D1{slash}TX-Pad1)*%
X128390000Y-61950000D03*
D25*
%TO.P,A1,2,D0/RX*%
%TO.N,unconnected-(A1-D0{slash}RX-Pad2)*%
X128390000Y-64490000D03*
%TO.P,A1,3,~{RESET}*%
%TO.N,unconnected-(A1-~{RESET}-Pad3)*%
X128390000Y-67030000D03*
%TO.P,A1,4,GND*%
%TO.N,unconnected-(A1-GND-Pad4)*%
X128390000Y-69570000D03*
%TO.P,A1,5,D2*%
%TO.N,Net-(A1-D2)*%
X128390000Y-72110000D03*
%TO.P,A1,6,D3*%
%TO.N,Net-(A1-D3)*%
X128390000Y-74650000D03*
%TO.P,A1,7,D4*%
%TO.N,Net-(A1-D4)*%
X128390000Y-77190000D03*
%TO.P,A1,8,D5*%
%TO.N,Net-(A1-D5)*%
X128390000Y-79730000D03*
%TO.P,A1,9,D6*%
%TO.N,D6*%
X128390000Y-82270000D03*
%TO.P,A1,10,D7*%
%TO.N,unconnected-(A1-D7-Pad10)*%
X128390000Y-84810000D03*
%TO.P,A1,11,D8*%
%TO.N,unconnected-(A1-D8-Pad11)*%
X128390000Y-87350000D03*
%TO.P,A1,12,D9*%
%TO.N,D9*%
X128390000Y-89890000D03*
%TO.P,A1,13,D10*%
%TO.N,Net-(A1-D10)*%
X128390000Y-92430000D03*
%TO.P,A1,14,D11*%
%TO.N,Net-(A1-D11)*%
X128390000Y-94970000D03*
%TO.P,A1,15,D12*%
%TO.N,Net-(A1-D12)*%
X128390000Y-97510000D03*
%TO.P,A1,16,D13*%
%TO.N,Net-(A1-D13)*%
X143630000Y-97510000D03*
%TO.P,A1,17,3V3*%
%TO.N,3.3V*%
X143630000Y-94970000D03*
%TO.P,A1,18,AREF*%
%TO.N,unconnected-(A1-AREF-Pad18)*%
X143630000Y-92430000D03*
%TO.P,A1,19,A0*%
%TO.N,A0*%
X143630000Y-89890000D03*
%TO.P,A1,20,A1*%
%TO.N,A1*%
X143630000Y-87350000D03*
%TO.P,A1,21,A2*%
%TO.N,unconnected-(A1-A2-Pad21)*%
X143630000Y-84810000D03*
%TO.P,A1,22,A3*%
%TO.N,unconnected-(A1-A3-Pad22)*%
X143630000Y-82270000D03*
%TO.P,A1,23,A4*%
%TO.N,Net-(A1-A4)*%
X143630000Y-79730000D03*
%TO.P,A1,24,A5*%
%TO.N,Net-(A1-A5)*%
X143630000Y-77190000D03*
%TO.P,A1,25,A6*%
%TO.N,unconnected-(A1-A6-Pad25)*%
X143630000Y-74650000D03*
%TO.P,A1,26,A7*%
%TO.N,unconnected-(A1-A7-Pad26)*%
X143630000Y-72110000D03*
%TO.P,A1,27,+5V*%
%TO.N,unconnected-(A1-+5V-Pad27)*%
X143630000Y-69570000D03*
%TO.P,A1,28,~{RESET}*%
%TO.N,unconnected-(A1-~{RESET}-Pad28)*%
X143630000Y-67030000D03*
%TO.P,A1,29,GND*%
%TO.N,GND*%
X143630000Y-64490000D03*
%TO.P,A1,30,VIN*%
%TO.N,12V*%
X143630000Y-61950000D03*
%TD*%
D26*
%TO.N,GND*%
X176874000Y-59849000D02*
X169500000Y-52475000D01*
X180849000Y-59849000D02*
X176874000Y-59849000D01*
X181500000Y-95611160D02*
X181500000Y-60500000D01*
X181500000Y-60500000D02*
X180849000Y-59849000D01*
X170809160Y-106302000D02*
X181500000Y-95611160D01*
X151207140Y-106302000D02*
X170809160Y-106302000D01*
X148698000Y-102257140D02*
X148698000Y-103792860D01*
X157927040Y-93028100D02*
X148698000Y-102257140D01*
X148698000Y-103792860D02*
X151207140Y-106302000D01*
X158901000Y-93028100D02*
X157927040Y-93028100D01*
X158901000Y-103985160D02*
X158901000Y-93028100D01*
X158585160Y-104301000D02*
X158901000Y-103985160D01*
X156526000Y-104301000D02*
X158585160Y-104301000D01*
X155250000Y-103025000D02*
X156526000Y-104301000D01*
%TO.N,3.3V*%
X151373240Y-105901000D02*
X169099000Y-105901000D01*
X169099000Y-105901000D02*
X172000000Y-103000000D01*
X149099000Y-102423240D02*
X149099000Y-103626760D01*
X156474000Y-101749000D02*
X149773240Y-101749000D01*
X149773240Y-101749000D02*
X149099000Y-102423240D01*
X149099000Y-103626760D02*
X151373240Y-105901000D01*
X157750000Y-103025000D02*
X156474000Y-101749000D01*
%TO.N,Net-(A1-A5)*%
X162000000Y-105500000D02*
X152725000Y-105500000D01*
X152725000Y-105500000D02*
X150250000Y-103025000D01*
X164500000Y-103000000D02*
X162000000Y-105500000D01*
%TO.N,Net-(A1-A4)*%
X178224000Y-67276000D02*
X179500000Y-66000000D01*
X179500000Y-86000000D02*
X178224000Y-84724000D01*
X178224000Y-84724000D02*
X178224000Y-67276000D01*
%TO.N,Net-(A1-D11)*%
X155181000Y-63389000D02*
X157955000Y-60615000D01*
X141000000Y-65562950D02*
X143173950Y-63389000D01*
X141000000Y-82360000D02*
X141000000Y-65562950D01*
X143173950Y-63389000D02*
X155181000Y-63389000D01*
X128390000Y-94970000D02*
X141000000Y-82360000D01*
%TO.N,12V*%
X140000000Y-63500000D02*
X141550000Y-61950000D01*
X140000000Y-74757050D02*
X140000000Y-63500000D01*
X128846050Y-85911000D02*
X140000000Y-74757050D01*
X128089000Y-85911000D02*
X128846050Y-85911000D01*
X141550000Y-61950000D02*
X143630000Y-61950000D01*
X127289000Y-86711000D02*
X128089000Y-85911000D01*
X127289000Y-88671000D02*
X127289000Y-86711000D01*
X124000000Y-91960000D02*
X127289000Y-88671000D01*
X134775000Y-57500000D02*
X143500000Y-57500000D01*
%TO.N,Net-(A1-A5)*%
X164500000Y-98060000D02*
X143630000Y-77190000D01*
X164500000Y-103000000D02*
X164500000Y-98060000D01*
X164500000Y-103000000D02*
X164000000Y-103000000D01*
%TO.N,Net-(A1-A4)*%
X173275108Y-86000000D02*
X179500000Y-86000000D01*
X167000000Y-92275108D02*
X173275108Y-86000000D01*
X167000000Y-103000000D02*
X167000000Y-92275108D01*
%TO.N,Net-(A1-D3)*%
X168525000Y-49000000D02*
X172000000Y-52475000D01*
X131113840Y-49000000D02*
X168525000Y-49000000D01*
X128599000Y-53435160D02*
X128599000Y-51514840D01*
X129491000Y-54327160D02*
X128599000Y-53435160D01*
X128599000Y-51514840D02*
X131113840Y-49000000D01*
X129491000Y-73549000D02*
X129491000Y-54327160D01*
X128390000Y-74650000D02*
X129491000Y-73549000D01*
%TO.N,D9*%
X123523240Y-93349000D02*
X124931000Y-93349000D01*
X122849000Y-92674760D02*
X123523240Y-93349000D01*
X122849000Y-82951000D02*
X122849000Y-92674760D01*
X124931000Y-93349000D02*
X128390000Y-89890000D01*
X124000000Y-81800000D02*
X122849000Y-82951000D01*
%TO.N,D6*%
X126070000Y-82270000D02*
X128390000Y-82270000D01*
X124000000Y-84340000D02*
X126070000Y-82270000D01*
%TO.N,12V*%
X143630000Y-61950000D02*
X143630000Y-57370000D01*
%TO.N,GND*%
X142000000Y-95500000D02*
X142000000Y-66120000D01*
X137500000Y-100000000D02*
X142000000Y-95500000D01*
X129000000Y-100000000D02*
X137500000Y-100000000D01*
X142000000Y-66120000D02*
X143630000Y-64490000D01*
X124000000Y-94500000D02*
X124000000Y-95000000D01*
X124000000Y-95000000D02*
X129000000Y-100000000D01*
%TO.N,Net-(D1-K)*%
X120725000Y-69500000D02*
X120725000Y-60000000D01*
X120725000Y-80155000D02*
X120725000Y-69500000D01*
X120000000Y-80880000D02*
X120725000Y-80155000D01*
%TO.N,GND*%
X120000000Y-90500000D02*
X120000000Y-88500000D01*
X124000000Y-94500000D02*
X120000000Y-90500000D01*
%TO.N,3.3V*%
X128109000Y-101149000D02*
X137451000Y-101149000D01*
X124000000Y-97040000D02*
X128109000Y-101149000D01*
X137451000Y-101149000D02*
X143630000Y-94970000D01*
%TO.N,Net-(J8-Pin_1)*%
X177500000Y-96035000D02*
X172560000Y-91095000D01*
X177500000Y-96500000D02*
X177500000Y-96035000D01*
%TO.N,Net-(J8-Pin_2)*%
X177500000Y-93495000D02*
X177500000Y-94500000D01*
X172560000Y-88555000D02*
X177500000Y-93495000D01*
%TO.N,GND*%
X133526000Y-51199000D02*
X132250000Y-52475000D01*
X149699000Y-51199000D02*
X133526000Y-51199000D01*
X151000000Y-52500000D02*
X149699000Y-51199000D01*
X153500000Y-50000000D02*
X151000000Y-52500000D01*
X167025000Y-50000000D02*
X153500000Y-50000000D01*
X169500000Y-52475000D02*
X167025000Y-50000000D01*
X169500000Y-56690000D02*
X169500000Y-52475000D01*
X165575000Y-60615000D02*
X169500000Y-56690000D01*
X161700000Y-64490000D02*
X165575000Y-60615000D01*
X143630000Y-64490000D02*
X161700000Y-64490000D01*
%TO.N,Net-(A1-D4)*%
X123265000Y-60000000D02*
X127289000Y-64024000D01*
X127289000Y-64024000D02*
X127289000Y-76089000D01*
X127289000Y-76089000D02*
X128390000Y-77190000D01*
%TO.N,Net-(A1-D5)*%
X123265000Y-74605000D02*
X128390000Y-79730000D01*
X123265000Y-69500000D02*
X123265000Y-74605000D01*
%TO.N,3.3V*%
X172952000Y-103000000D02*
X172000000Y-103000000D01*
X180776000Y-95176000D02*
X172952000Y-103000000D01*
X180776000Y-82276000D02*
X180776000Y-95176000D01*
X179500000Y-81000000D02*
X180776000Y-82276000D01*
X180776000Y-62276000D02*
X179500000Y-61000000D01*
X180776000Y-79724000D02*
X180776000Y-62276000D01*
X179500000Y-81000000D02*
X180776000Y-79724000D01*
X168500000Y-61000000D02*
X168115000Y-60615000D01*
X179500000Y-61000000D02*
X168500000Y-61000000D01*
%TO.N,12V*%
X143630000Y-57370000D02*
X162105000Y-57370000D01*
X162105000Y-57370000D02*
X167000000Y-52475000D01*
X143500000Y-57500000D02*
X143630000Y-57370000D01*
X129750000Y-52475000D02*
X134775000Y-57500000D01*
X143630000Y-57370000D02*
X148500000Y-52500000D01*
%TD*%
M02*
