%TF.GenerationSoftware,KiCad,Pcbnew,9.0.0*%
%TF.CreationDate,2025-03-15T15:19:18-03:00*%
%TF.ProjectId,can,63616e2e-6b69-4636-9164-5f7063625858,rev?*%
%TF.SameCoordinates,Original*%
%TF.FileFunction,Copper,L2,Bot*%
%TF.FilePolarity,Positive*%
%FSLAX46Y46*%
G04 Gerber Fmt 4.6, Leading zero omitted, Abs format (unit mm)*
G04 Created by KiCad (PCBNEW 9.0.0) date 2025-03-15 15:19:18*
%MOMM*%
%LPD*%
G01*
G04 APERTURE LIST*
G04 Aperture macros list*
%AMRoundRect*
0 Rectangle with rounded corners*
0 $1 Rounding radius*
0 $2 $3 $4 $5 $6 $7 $8 $9 X,Y pos of 4 corners*
0 Add a 4 corners polygon primitive as box body*
4,1,4,$2,$3,$4,$5,$6,$7,$8,$9,$2,$3,0*
0 Add four circle primitives for the rounded corners*
1,1,$1+$1,$2,$3*
1,1,$1+$1,$4,$5*
1,1,$1+$1,$6,$7*
1,1,$1+$1,$8,$9*
0 Add four rect primitives between the rounded corners*
20,1,$1+$1,$2,$3,$4,$5,0*
20,1,$1+$1,$4,$5,$6,$7,0*
20,1,$1+$1,$6,$7,$8,$9,0*
20,1,$1+$1,$8,$9,$2,$3,0*%
G04 Aperture macros list end*
%TA.AperFunction,ComponentPad*%
%ADD10O,1.700000X1.950000*%
%TD*%
%TA.AperFunction,ComponentPad*%
%ADD11RoundRect,0.250000X-0.600000X-0.725000X0.600000X-0.725000X0.600000X0.725000X-0.600000X0.725000X0*%
%TD*%
%TA.AperFunction,ComponentPad*%
%ADD12RoundRect,0.250000X0.600000X0.725000X-0.600000X0.725000X-0.600000X-0.725000X0.600000X-0.725000X0*%
%TD*%
%TA.AperFunction,ComponentPad*%
%ADD13O,1.700000X1.700000*%
%TD*%
%TA.AperFunction,ComponentPad*%
%ADD14R,1.700000X1.700000*%
%TD*%
%TA.AperFunction,ComponentPad*%
%ADD15C,1.400000*%
%TD*%
%TA.AperFunction,ComponentPad*%
%ADD16O,1.400000X1.400000*%
%TD*%
%TA.AperFunction,ComponentPad*%
%ADD17C,2.000000*%
%TD*%
%TA.AperFunction,ComponentPad*%
%ADD18R,1.350000X1.350000*%
%TD*%
%TA.AperFunction,ComponentPad*%
%ADD19O,1.350000X1.350000*%
%TD*%
%TA.AperFunction,ComponentPad*%
%ADD20RoundRect,0.250000X-0.725000X0.600000X-0.725000X-0.600000X0.725000X-0.600000X0.725000X0.600000X0*%
%TD*%
%TA.AperFunction,ComponentPad*%
%ADD21O,1.950000X1.700000*%
%TD*%
%TA.AperFunction,ComponentPad*%
%ADD22R,1.800000X1.800000*%
%TD*%
%TA.AperFunction,ComponentPad*%
%ADD23C,1.800000*%
%TD*%
%TA.AperFunction,ComponentPad*%
%ADD24R,1.600000X1.600000*%
%TD*%
%TA.AperFunction,ComponentPad*%
%ADD25O,1.600000X1.600000*%
%TD*%
%TA.AperFunction,Conductor*%
%ADD26C,0.200000*%
%TD*%
G04 APERTURE END LIST*
D10*
%TO.P,J1,4,Pin_4*%
%TO.N,Net-(J1-Pin_4)*%
X137250000Y-52475000D03*
%TO.P,J1,3,Pin_3*%
%TO.N,Net-(J1-Pin_3)*%
X134750000Y-52475000D03*
%TO.P,J1,2,Pin_2*%
%TO.N,GND*%
X132250000Y-52475000D03*
D11*
%TO.P,J1,1,Pin_1*%
%TO.N,12V*%
X129750000Y-52475000D03*
%TD*%
D10*
%TO.P,J6,4,Pin_4*%
%TO.N,Net-(A1-A5)*%
X150250000Y-103025000D03*
%TO.P,J6,3,Pin_3*%
%TO.N,Net-(A1-A4)*%
X152750000Y-103025000D03*
%TO.P,J6,2,Pin_2*%
%TO.N,GND*%
X155250000Y-103025000D03*
D12*
%TO.P,J6,1,Pin_1*%
%TO.N,3.3V*%
X157750000Y-103025000D03*
%TD*%
D13*
%TO.P,J9,7,Pin_7*%
%TO.N,3.3V*%
X124000000Y-97040000D03*
%TO.P,J9,6,Pin_6*%
%TO.N,GND*%
X124000000Y-94500000D03*
%TO.P,J9,5,Pin_5*%
%TO.N,12V*%
X124000000Y-91960000D03*
%TO.P,J9,4,Pin_4*%
%TO.N,A0*%
X124000000Y-89420000D03*
%TO.P,J9,3,Pin_3*%
%TO.N,A1*%
X124000000Y-86880000D03*
%TO.P,J9,2,Pin_2*%
%TO.N,D6*%
X124000000Y-84340000D03*
D14*
%TO.P,J9,1,Pin_1*%
%TO.N,D9*%
X124000000Y-81800000D03*
%TD*%
D15*
%TO.P,R1,1*%
%TO.N,Net-(D1-K)*%
X120000000Y-80880000D03*
D16*
%TO.P,R1,2*%
%TO.N,GND*%
X120000000Y-88500000D03*
%TD*%
D17*
%TO.P,M1,1,int*%
%TO.N,Net-(A1-D2)*%
X152875000Y-60615000D03*
%TO.P,M1,2,sck*%
%TO.N,Net-(A1-D13)*%
X155415000Y-60615000D03*
%TO.P,M1,3,si*%
%TO.N,Net-(A1-D11)*%
X157955000Y-60615000D03*
%TO.P,M1,4,so*%
%TO.N,Net-(A1-D12)*%
X160495000Y-60615000D03*
%TO.P,M1,5,cs*%
%TO.N,Net-(A1-D10)*%
X163035000Y-60615000D03*
%TO.P,M1,6,gnd*%
%TO.N,GND*%
X165575000Y-60615000D03*
%TO.P,M1,7,vcc*%
%TO.N,3.3V*%
X168115000Y-60615000D03*
%TO.P,M1,8,can_L*%
%TO.N,Net-(J1-Pin_4)*%
X159860000Y-89190000D03*
%TO.P,M1,9,can_H*%
%TO.N,Net-(J1-Pin_3)*%
X162400000Y-89190000D03*
%TO.P,M1,10,R1*%
%TO.N,Net-(J8-Pin_2)*%
X172560000Y-88555000D03*
%TO.P,M1,11,R2*%
%TO.N,Net-(J8-Pin_1)*%
X172560000Y-91095000D03*
%TD*%
D18*
%TO.P,J8,1,Pin_1*%
%TO.N,Net-(J8-Pin_1)*%
X177500000Y-96500000D03*
D19*
%TO.P,J8,2,Pin_2*%
%TO.N,Net-(J8-Pin_2)*%
X177500000Y-94500000D03*
%TD*%
D11*
%TO.P,CAN,1,Pin_1*%
%TO.N,12V*%
X167000000Y-52475000D03*
D10*
%TO.P,CAN,2,Pin_2*%
%TO.N,GND*%
X169500000Y-52475000D03*
%TO.P,CAN,3,Pin_3*%
%TO.N,Net-(A1-D3)*%
X172000000Y-52475000D03*
%TD*%
D12*
%TO.P,J5,1,Pin_1*%
%TO.N,3.3V*%
X172000000Y-103000000D03*
D10*
%TO.P,J5,2,Pin_2*%
%TO.N,GND*%
X169500000Y-103000000D03*
%TO.P,J5,3,Pin_3*%
%TO.N,Net-(A1-A4)*%
X167000000Y-103000000D03*
%TO.P,J5,4,Pin_4*%
%TO.N,Net-(A1-A5)*%
X164500000Y-103000000D03*
%TD*%
D20*
%TO.P,J4,1,Pin_1*%
%TO.N,3.3V*%
X179500000Y-81000000D03*
D21*
%TO.P,J4,2,Pin_2*%
%TO.N,GND*%
X179500000Y-83500000D03*
%TO.P,J4,3,Pin_3*%
%TO.N,Net-(A1-A4)*%
X179500000Y-86000000D03*
%TO.P,J4,4,Pin_4*%
%TO.N,Net-(A1-A5)*%
X179500000Y-88500000D03*
%TD*%
D20*
%TO.P,J3,1,Pin_1*%
%TO.N,3.3V*%
X179500000Y-61000000D03*
D21*
%TO.P,J3,2,Pin_2*%
%TO.N,GND*%
X179500000Y-63500000D03*
%TO.P,J3,3,Pin_3*%
%TO.N,Net-(A1-A4)*%
X179500000Y-66000000D03*
%TO.P,J3,4,Pin_4*%
%TO.N,Net-(A1-A5)*%
X179500000Y-68500000D03*
%TD*%
D11*
%TO.P,J2,1,Pin_1*%
%TO.N,12V*%
X148500000Y-52500000D03*
D10*
%TO.P,J2,2,Pin_2*%
%TO.N,GND*%
X151000000Y-52500000D03*
%TO.P,J2,3,Pin_3*%
%TO.N,Net-(J1-Pin_3)*%
X153500000Y-52500000D03*
%TO.P,J2,4,Pin_4*%
%TO.N,Net-(J1-Pin_4)*%
X156000000Y-52500000D03*
%TD*%
D22*
%TO.P,D2,1,K*%
%TO.N,Net-(D1-K)*%
X120725000Y-60000000D03*
D23*
%TO.P,D2,2,A*%
%TO.N,Net-(A1-D4)*%
X123265000Y-60000000D03*
%TD*%
D22*
%TO.P,D1,1,K*%
%TO.N,Net-(D1-K)*%
X120725000Y-69500000D03*
D23*
%TO.P,D1,2,A*%
%TO.N,Net-(A1-D5)*%
X123265000Y-69500000D03*
%TD*%
D24*
%TO.P,A1,1,D1/TX*%
%TO.N,unconnected-(A1-D1{slash}TX-Pad1)*%
X128390000Y-61950000D03*
D25*
%TO.P,A1,2,D0/RX*%
%TO.N,unconnected-(A1-D0{slash}RX-Pad2)*%
X128390000Y-64490000D03*
%TO.P,A1,3,~{RESET}*%
%TO.N,unconnected-(A1-~{RESET}-Pad3)*%
X128390000Y-67030000D03*
%TO.P,A1,4,GND*%
%TO.N,unconnected-(A1-GND-Pad4)*%
X128390000Y-69570000D03*
%TO.P,A1,5,D2*%
%TO.N,Net-(A1-D2)*%
X128390000Y-72110000D03*
%TO.P,A1,6,D3*%
%TO.N,Net-(A1-D3)*%
X128390000Y-74650000D03*
%TO.P,A1,7,D4*%
%TO.N,Net-(A1-D4)*%
X128390000Y-77190000D03*
%TO.P,A1,8,D5*%
%TO.N,Net-(A1-D5)*%
X128390000Y-79730000D03*
%TO.P,A1,9,D6*%
%TO.N,D6*%
X128390000Y-82270000D03*
%TO.P,A1,10,D7*%
%TO.N,unconnected-(A1-D7-Pad10)*%
X128390000Y-84810000D03*
%TO.P,A1,11,D8*%
%TO.N,unconnected-(A1-D8-Pad11)*%
X128390000Y-87350000D03*
%TO.P,A1,12,D9*%
%TO.N,D9*%
X128390000Y-89890000D03*
%TO.P,A1,13,D10*%
%TO.N,Net-(A1-D10)*%
X128390000Y-92430000D03*
%TO.P,A1,14,D11*%
%TO.N,Net-(A1-D11)*%
X128390000Y-94970000D03*
%TO.P,A1,15,D12*%
%TO.N,Net-(A1-D12)*%
X128390000Y-97510000D03*
%TO.P,A1,16,D13*%
%TO.N,Net-(A1-D13)*%
X143630000Y-97510000D03*
%TO.P,A1,17,3V3*%
%TO.N,3.3V*%
X143630000Y-94970000D03*
%TO.P,A1,18,AREF*%
%TO.N,unconnected-(A1-AREF-Pad18)*%
X143630000Y-92430000D03*
%TO.P,A1,19,A0*%
%TO.N,A0*%
X143630000Y-89890000D03*
%TO.P,A1,20,A1*%
%TO.N,A1*%
X143630000Y-87350000D03*
%TO.P,A1,21,A2*%
%TO.N,unconnected-(A1-A2-Pad21)*%
X143630000Y-84810000D03*
%TO.P,A1,22,A3*%
%TO.N,unconnected-(A1-A3-Pad22)*%
X143630000Y-82270000D03*
%TO.P,A1,23,A4*%
%TO.N,Net-(A1-A4)*%
X143630000Y-79730000D03*
%TO.P,A1,24,A5*%
%TO.N,Net-(A1-A5)*%
X143630000Y-77190000D03*
%TO.P,A1,25,A6*%
%TO.N,unconnected-(A1-A6-Pad25)*%
X143630000Y-74650000D03*
%TO.P,A1,26,A7*%
%TO.N,unconnected-(A1-A7-Pad26)*%
X143630000Y-72110000D03*
%TO.P,A1,27,+5V*%
%TO.N,unconnected-(A1-+5V-Pad27)*%
X143630000Y-69570000D03*
%TO.P,A1,28,~{RESET}*%
%TO.N,unconnected-(A1-~{RESET}-Pad28)*%
X143630000Y-67030000D03*
%TO.P,A1,29,GND*%
%TO.N,GND*%
X143630000Y-64490000D03*
%TO.P,A1,30,VIN*%
%TO.N,12V*%
X143630000Y-61950000D03*
%TD*%
D26*
%TO.N,Net-(A1-D10)*%
X153151000Y-70499000D02*
X163035000Y-60615000D01*
X159500000Y-91500000D02*
X153151000Y-85151000D01*
X153151000Y-85151000D02*
X153151000Y-70499000D01*
X163500000Y-91500000D02*
X159500000Y-91500000D01*
X171500000Y-83500000D02*
X163500000Y-91500000D01*
X171500000Y-59865800D02*
X171500000Y-83500000D01*
X161630200Y-49996000D02*
X171500000Y-59865800D01*
X126888000Y-72732150D02*
X126888000Y-53225840D01*
X122849000Y-76771150D02*
X126888000Y-72732150D01*
X126888000Y-53225840D02*
X130117840Y-49996000D01*
X122849000Y-89896760D02*
X122849000Y-76771150D01*
X130117840Y-49996000D02*
X161630200Y-49996000D01*
X123523240Y-90571000D02*
X122849000Y-89896760D01*
X126531000Y-90571000D02*
X123523240Y-90571000D01*
X128390000Y-92430000D02*
X126531000Y-90571000D01*
%TO.N,3.3V*%
X159722108Y-90892000D02*
X158559000Y-89728892D01*
X163104992Y-90892000D02*
X159722108Y-90892000D01*
X170901000Y-83095992D02*
X163104992Y-90892000D01*
X170901000Y-59833900D02*
X170901000Y-83095992D01*
X158559000Y-89728892D02*
X158559000Y-70171000D01*
X161464100Y-50397000D02*
X170901000Y-59833900D01*
X132575240Y-50397000D02*
X161464100Y-50397000D01*
X158559000Y-70171000D02*
X168115000Y-60615000D01*
X131099000Y-54425240D02*
X131099000Y-51873240D01*
X127289000Y-58235240D02*
X131099000Y-54425240D01*
X131099000Y-51873240D02*
X132575240Y-50397000D01*
X127289000Y-72566050D02*
X127289000Y-58235240D01*
X127933950Y-73211000D02*
X127289000Y-72566050D01*
X133013950Y-73211000D02*
X127933950Y-73211000D01*
X144086050Y-63051000D02*
X143173950Y-63051000D01*
X143173950Y-63051000D02*
X133013950Y-73211000D01*
X145132000Y-64096950D02*
X144086050Y-63051000D01*
X145132000Y-93468000D02*
X145132000Y-64096950D01*
X143630000Y-94970000D02*
X145132000Y-93468000D01*
%TO.N,Net-(A1-A4)*%
X144731000Y-80831000D02*
X143630000Y-79730000D01*
X144731000Y-90346050D02*
X144731000Y-80831000D01*
X143748050Y-91329000D02*
X144731000Y-90346050D01*
X133671000Y-91329000D02*
X143748050Y-91329000D01*
X128591000Y-96409000D02*
X133671000Y-91329000D01*
X127933950Y-96409000D02*
X128591000Y-96409000D01*
X127289000Y-97053950D02*
X127933950Y-96409000D01*
X127289000Y-97966050D02*
X127289000Y-97053950D01*
X128334950Y-99012000D02*
X127289000Y-97966050D01*
X148737000Y-99012000D02*
X128334950Y-99012000D01*
X152750000Y-103025000D02*
X148737000Y-99012000D01*
X165699000Y-104301000D02*
X167000000Y-103000000D01*
X154026000Y-104301000D02*
X165699000Y-104301000D01*
X152750000Y-103025000D02*
X154026000Y-104301000D01*
%TO.N,Net-(J1-Pin_4)*%
X154298000Y-50798000D02*
X156000000Y-52500000D01*
X133599000Y-53076760D02*
X133599000Y-51873240D01*
X134273240Y-53751000D02*
X133599000Y-53076760D01*
X135974000Y-53751000D02*
X134273240Y-53751000D01*
X137250000Y-52475000D02*
X135974000Y-53751000D01*
X133599000Y-51873240D02*
X134674240Y-50798000D01*
X134674240Y-50798000D02*
X154298000Y-50798000D01*
%TO.N,GND*%
X181177000Y-65177000D02*
X179500000Y-63500000D01*
X181177000Y-89323000D02*
X181177000Y-65177000D01*
X169500000Y-101000000D02*
X181177000Y-89323000D01*
X169500000Y-103000000D02*
X169500000Y-101000000D01*
X178224000Y-82224000D02*
X179500000Y-83500000D01*
X178224000Y-64776000D02*
X178224000Y-82224000D01*
X179500000Y-63500000D02*
X178224000Y-64776000D01*
X169500000Y-53500000D02*
X169500000Y-52475000D01*
X179500000Y-63500000D02*
X169500000Y-53500000D01*
%TO.N,A0*%
X142310000Y-88570000D02*
X143630000Y-89890000D01*
X124850000Y-88570000D02*
X142310000Y-88570000D01*
X124000000Y-89420000D02*
X124850000Y-88570000D01*
%TO.N,A1*%
X142310000Y-86030000D02*
X143630000Y-87350000D01*
X124850000Y-86030000D02*
X142310000Y-86030000D01*
X124000000Y-86880000D02*
X124850000Y-86030000D01*
%TO.N,Net-(A1-D13)*%
X146000000Y-70030000D02*
X155415000Y-60615000D01*
X146000000Y-95140000D02*
X146000000Y-70030000D01*
%TO.N,Net-(A1-D12)*%
X160495000Y-62495000D02*
X160495000Y-60615000D01*
X160500000Y-62500000D02*
X160495000Y-62495000D01*
X160000000Y-63000000D02*
X160500000Y-62500000D01*
X155000000Y-63000000D02*
X160000000Y-63000000D01*
X147000000Y-71000000D02*
X155000000Y-63000000D01*
X144086050Y-98611000D02*
X147000000Y-95697050D01*
X129491000Y-98611000D02*
X144086050Y-98611000D01*
X147000000Y-95697050D02*
X147000000Y-71000000D01*
X128390000Y-97510000D02*
X129491000Y-98611000D01*
%TO.N,GND*%
X124000000Y-95000000D02*
X124000000Y-94500000D01*
%TO.N,Net-(A1-D13)*%
X143630000Y-97510000D02*
X146000000Y-95140000D01*
%TO.N,Net-(J1-Pin_4)*%
X156000000Y-54000000D02*
X156000000Y-52500000D01*
X160000000Y-58000000D02*
X156000000Y-54000000D01*
X168500000Y-58000000D02*
X160000000Y-58000000D01*
X170500000Y-60000000D02*
X168500000Y-58000000D01*
X170500000Y-82929892D02*
X170500000Y-60000000D01*
X162938892Y-90491000D02*
X170500000Y-82929892D01*
X161161000Y-90491000D02*
X162938892Y-90491000D01*
X159860000Y-89190000D02*
X161161000Y-90491000D01*
%TO.N,Net-(J1-Pin_3)*%
X168653892Y-59314000D02*
X169416000Y-60076108D01*
X160314000Y-59314000D02*
X168653892Y-59314000D01*
X169416000Y-60076108D02*
X169416000Y-82174000D01*
X169416000Y-82174000D02*
X162400000Y-89190000D01*
X153500000Y-52500000D02*
X160314000Y-59314000D01*
X136026000Y-51199000D02*
X134750000Y-52475000D01*
X152199000Y-51199000D02*
X136026000Y-51199000D01*
X153500000Y-52500000D02*
X152199000Y-51199000D01*
%TO.N,Net-(A1-D2)*%
X129890000Y-72110000D02*
X128390000Y-72110000D01*
X141385000Y-60615000D02*
X129890000Y-72110000D01*
X152875000Y-60615000D02*
X141385000Y-60615000D01*
%TO.N,Net-(A1-A5)*%
X165000000Y-103000000D02*
X164500000Y-103000000D01*
X179500000Y-88500000D02*
X165000000Y-103000000D01*
X180776000Y-87224000D02*
X180776000Y-69776000D01*
X180776000Y-69776000D02*
X179500000Y-68500000D01*
X179500000Y-88500000D02*
X180776000Y-87224000D01*
%TD*%
M02*
